<svg xmlns="http://www.w3.org/2000/svg" width="500" height="500" style="width:100%;height:100%;content-visibility:visible"><defs><clipPath id="a"><path d="M0 0h500v500H0z"/></clipPath></defs><g clip-path="url(#a)"><path stroke-linecap="round" stroke-linejoin="round" stroke="#EB6E7D" stroke-width="12.25" d="M290.282 360.25h50.911c46.858 0 84.847-37.986 84.847-84.844 0-35.914-22.326-66.591-53.844-78.974 0 0 0 0 0 0-17.944-42.067-59.671-71.558-108.293-71.558-45.444 0-84.844 25.774-104.454 63.487a36.508 36.508 0 00-11.312-1.799c-20.227 0-36.621 16.397-36.621 36.624 0 2.709.315 5.341.872 7.882-21.795 11.473-36.677 34.307-36.677 60.648 0 37.849 30.685 68.533 68.534 68.533h88.62" fill="none" display="block"/><path stroke-linecap="round" stroke-linejoin="round" stroke="#EB6E7D" stroke-width="12.25" d="M183.515 211.254c-5.1-14.129-18.592-24.255-34.479-24.255m223.765 9.058c6.262 14.382 9.734 30.254 9.734 46.942 0 0 .038 12.429-4.273 27.682" fill="none" display="block"/><g display="block"><path stroke-linecap="round" stroke-linejoin="round" stroke="#EB6E7D" stroke-width="12.25" d="M262.25 376.437v-133" fill="none"/></g><path stroke-linecap="round" stroke-linejoin="round" stroke="#EB6E7D" stroke-width="12.25" d="M213.688 289.812l49-49 48.125 49" fill="none" display="block"/></g></svg>