<svg xmlns="http://www.w3.org/2000/svg" xmlns:xlink="http://www.w3.org/1999/xlink" width="507.249" height="254.282" viewBox="0 0 507.249 254.282">
  <defs>
    <rect id="rect-1" width="507.249" height="254.282" x="0" y="0"/>
    <mask id="mask-2" maskContentUnits="userSpaceOnUse" maskUnits="userSpaceOnUse">
      <rect width="507.249" height="254.282" x="0" y="0" fill="black"/>
      <use fill="white" xlink:href="#rect-1"/>
    </mask>
  </defs>
  <g>
    <use fill="none" xlink:href="#rect-1"/>
    <g mask="url(#mask-2)">
      <path fill="rgb(200,200,200)" fill-rule="evenodd" d="M121.19830322 253.45996094c22.89019776.82226562 45.848938.82226562 45.848938.82226562 52.66040038.00048828 105.27124023-3.23046875 157.53588866-9.67480468 33.3380127-4.11425782 66.74609375-9.52832032 99.29675293-16.0913086 16.76086426-3.37695312 33.73388672-7.15478516 50.44763184-11.22949219 3.0435791-.72509765 5.98266601-1.83496093 8.74597168-3.30224609 4.14331055-2.21533203 7.6052246-5.06738281 11.98828125-8.67822266l.5201416-.42871093c.44226074-.3647461.875-.75732422 1.28613281-1.16601563l.17077637-.17529297c3.67993164-3.6586914 5.1743164-8.97460937 3.93713379-14.01074218-.65319824-2.66357422-1.39465332-5.29785157-2.20324707-7.828125-6.578125-20.75488282-18.32421875-38.92285157-33.96826172-52.53955079-15.84960938-13.79638672-34.31811523-21.66796875-53.41101074-22.76513672l-.97363282-.05078124c-68.58654785-3.07714844-121.24035644-18.45703126-160.97064209-47.01757813C198.06494141 22.39013672 143.74035645 6.91113281 92.3522339 14.56152344c-.52453614.08886718-1.04077149.2211914-1.54327393.3959961l-.19604492.06201171c-.15203858.00634766-.3012085-.00195313-.45153809-.0102539-.27642822-.02392579-.5546875-.01757813-.82983398.0180664-33.31994629 5.3930664-61.19494629 26.63769531-76.47790527 58.28564453-3.52954102 7.34716797-6.33013916 15.02294922-8.36169434 22.9165039-5.79711914 23.0234375-5.98248291 47.10205079-.5404663 70.21240235 2.91735839 12.69335938 7.77093505 24.8618164 14.39031981 36.07861328 9.90350342 16.54882813 22.88739014 29.59326172 37.54760743 37.72363282 20.95684814 11.62304687 43.50415039 12.43261718 65.30889892 13.2158203zM89.46575928 16.15136719c.10131836-.01464844.20355224-.02148438.30596924-.02050781.1118164 0 .22631836.00585937.34442138.01220703.2005005.01367187.4015503.01611328.60229492.00683593l.35333252-.0986328c.45782471-.16015626.92810059-.28222657 1.40600586-.3647461 51.16363526-7.61376953 105.26116944 7.80761718 156.44958496 44.60009765 21.59716797 15.52539063 47.71911622 27.39648438 77.64068604 35.28222657 25.0647583 6.6064453 52.48040771 10.50048828 83.80987549 11.90673828l.96838379.05078125c38.30114746 2.19970703 73.06335449 32.16308593 86.5012207 74.56152343.80041504 2.50439454 1.53381348 5.11035157 2.18017578 7.74609376 1.14855957 4.67578124-.23864746 9.41992187-3.80603027 13.01513671l-.10253906.10791016c-.35717774.34863281-.73046876.68457031-1.11071778.99853516l-.5201416.42822265c-4.34094238 3.57617188-7.76989746 6.40136719-11.82971191 8.57177735-2.69665528 1.43164062-5.56494141 2.51416015-8.53527832 3.2211914-16.70251465 4.07226563-33.6636963 7.84765625-50.41320801 11.22167969-32.5291748 6.55908203-65.91577149 11.96972656-99.23205567 16.08154297-67.4095459 8.31298828-135.37194824 11.2709961-203.24890136 8.84570312-21.70227051-.77880859-44.14331055-1.58496093-64.9119873-13.1040039-14.50653077-8.0444336-27.35766602-20.95800782-37.16424561-37.34472657-6.55548096-11.109375-11.36199952-23.16162109-14.25079346-35.73339843-5.39361572-22.90478516-5.21057129-46.76953125.53375244-69.58886719 2.01135254-7.81591797 4.78424072-15.41552734 8.27893066-22.68945313 15.1314087-31.33496093 42.74255372-52.37109374 75.75097657-57.71386718z"/>
      <path fill="rgb(47,46,65)" fill-rule="evenodd" d="M158.44379981 82.84815252c-1.4169521-1.3594338-2.86627061-8.94052953-4.67523857-9.7101506 1.35222496 2.98854325.37043257 3.77977037.3632287 7.05964071.01702092 1.86239527-.20047444 3.71952565-.64735653 5.52759113H122.8400704V61.80949099c-.00012939-4.33988376 1.72381875-8.5020544 4.79256829-11.57081618 3.06874953-3.06876177 7.23090442-4.79271763 11.57077238-4.79258975.82017445.01600993 1.63506228.13531319 2.42540452.35509017 5.36069935 1.44731313 9.54374839 5.64188426 10.97632475 11.00655872 2.33618985 8.53895998 6.05159369 22.75268065 5.83865948 26.04041857z"/>
      <path fill="rgb(255,182,182)" fill-rule="evenodd" d="M124.63820416 112.26903518l.01510546-18.64091798-10.95762869.97919802 3.86717314 11.75677463-1.80989255 29.55101243c-2.44685139.54908623-4.01351872 2.9443519-3.53601216 5.40618188.47750656 2.46182997 2.82606492 4.097677 5.30076216 3.69215269 2.47469723-.40552432 4.17832103-2.70539537 3.84512674-5.19087355l3.2753659-27.55352812z"/>
      <path fill="rgb(255,182,182)" fill-rule="evenodd" d="M146.20245676 245.47735202l4.42669905-.00056723 2.10614217-17.07495899h-6.5339757l.00113448 17.07552622z"/>
      <path fill="rgb(47,46,65)" fill-rule="evenodd" d="M144.7031195 243.2934l6.99801333-.41768475v2.99826002l6.6532084 4.59496324c.67451877.46572172.96780974 1.31596716.72387791 2.09850944-.24393183.78254228-.96840094 1.31553215-1.78807813 1.31548402h-8.33140043l-1.43602253-2.96572332-.56070576 2.96574034h-3.14126597l.88237318-10.589549z"/>
      <path fill="rgb(255,182,182)" fill-rule="evenodd" d="M120.60542688 245.47735202l4.42726628-.00056723 2.10557494-17.07495899h-6.53340846l.00056724 17.07552622z"/>
      <path fill="rgb(47,46,65)" fill-rule="evenodd" d="M119.10642428 243.2934l6.99801333-.41768475v2.99826002l6.65320274 4.59496324c.67451876.46572172.96780974 1.31596716.7238779 2.09850944-.24393183.78254228-.96840094 1.31553215-1.78807813 1.31548402h-8.33139475l-1.43604522-2.96574034-.5607001 2.96574034h-3.14127163l.88239586-10.58953198z"/>
      <path fill="rgb(230,230,230)" fill-rule="evenodd" d="M142.26027252 73.49763565l-9.17066377.17981404-6.47341205 6.83306936-5.18981114.76117492c-4.83801596.7095769-8.52133721 4.7050375-8.83591025 9.58470053l.89906688 4.93861225h5.3945091l3.12072073 18.3233562c-1.21345668 3.09206394-1.29594961 5.53277566 1.19488542 6.49145673l7.73212838 14.5652259 22.83675273-10.24957c1.15813996-1.99107455 1.52926456-3.99092991.34544589-5.93569525l1.6325353-28.04985455h5.48937342c0-5.24619635-1.7745198-9.66894086-6.98812076-10.2527125-2.07043785-.22407575-4.15090226-.34306827-6.23338672-.3565196l-5.75411316-6.83305803z"/>
      <path fill="rgb(47,46,65)" fill-rule="evenodd" d="M153.76853855 124.92547557s-22.29730692 3.95598813-30.56888678-4.31562186c0 0-.83976818 1.425653-2.10516087 3.790009-.36389803.67993528-1.0667301 1.14054282-1.49118042 1.96415348-.38575359.74853122-1.37792637 1.66876498-1.79816781 2.51771978-.33807184.68295298.20428388 1.57546588-.147481 2.31328767-4.23604582 8.88501407-9.18510557 21.41806914-8.1240932 29.69397877.6842211 5.33694287 2.09742946 17.75551256 3.58578506 31.09373175.1162831 1.04212158-.82560433 2.38083421-.70871429 3.4312488.11022503.99051439 1.27922186 1.69243576 1.3894469 2.68524746.07317326.65919143-.7431738 1.3316165-.67017637 1.9900138.08008218.72233623 1.0494975 1.43049154 1.12915427 2.1500483 2.03889084 18.41712042 3.90571673 35.6116529 3.90571673 35.6116529h10.42938577l1.96781067-39.27076068-1.60817825-14.314893 3.77616034-28.95062643 5.21469005 27.51211417.67081735 15.48395081 5.51092266 40.25951097h9.6421492v-38.97369883l.7192535-2.02471734-.7192535-2.59673585.7192535-2.7977929-.7192535-3.04699132v-64.20482945z"/>
      <path fill="rgb(255,182,182)" fill-rule="evenodd" d="M145.07510062 68.1795137c-2.92616603 3.88704045-8.15696505 5.22447671-12.58974573 3.21900772-4.43278067-2.00546899-6.88156776-6.8172869-5.89386185-11.58132126.98770592-4.76403436 5.14764753-8.20568416 10.01235314-8.2835329 4.86470562-.07784873 9.13263997 3.22893174 10.27227544 7.95892276.02990461.12458787.05512386.24848938.0796284.37710463.5910395 2.91143665-.09360195 5.9365867-1.8806494 8.30981904z"/>
      <path fill="rgb(47,46,65)" fill-rule="evenodd" d="M142.90762904 62.24823156c-.2205253-1.10676304-.77832152-2.11809782-1.59676549-2.89507966.0807501 1.06061152-.066407 2.1262231-.43158614 3.12525296-2.73400082.2421126-5.4802663-.30190167-7.915504-1.56800105-1.8341248-1.24432444-4.16814782-1.13646439-6.88699983 0-.00033706-2.67077767 1.0604721-5.23226401 2.94899024-7.12078903 1.88851814-1.88852502 4.44999515-2.94933804 7.1207631-2.94900098h1.79816781c5.56094995.00101466 10.06873615 4.50881981 10.06974767 10.06979001-1.6596198.59524435-3.36851463 1.04292214-5.10681336 1.33782775z"/>
      <ellipse cx="64.239" cy="161.662" fill="rgb(200,200,200)" rx="28.929" ry="28.929"/>
      <ellipse cx="248.59" cy="28.929" fill="rgb(200,200,200)" rx="28.929" ry="28.929"/>
      <ellipse cx="478.32" cy="166.2" fill="rgb(200,200,200)" rx="28.929" ry="28.929"/>
      <path fill="rgb(236,111,126)" fill-rule="evenodd" d="M300.77564032 32.08391714V97.6826003c.00035323 2.83585858-2.28277028 5.14321197-5.11846437 5.17278457-.0188139.00196373-.037732.00275183-.05664405.0023597h-7.63489302c-12.72100272 0-23.03341298-10.3124478-23.03341298-23.03349684V32.0839058c0-2.8581376 2.31696989-5.17511591 5.17509708-5.17511591h3.09369767c-1.43324309 4.18089747 18.01843489 5.94110667 19.0863108 0h3.31321747c2.85812551.00001253 5.17508827 2.31699134 5.1750914 5.17512726z"/>
      <path fill="rgb(63,61,86)" fill-rule="evenodd" d="M278.1186329 22.00354816c.0004376-.37438817.30382728-.6777815.67821409-.67822222h4.61186144c.37380312.00108104.67625836.30441334.67625836.67821939 0 .37380604-.30245524.67713835-.67625836.67821939H278.796847c-.3743846-.00044073-.67777336-.3038306-.67821409-.67821656z"/>
      <path fill="rgb(63,61,86)" fill-rule="evenodd" d="M268.02008057 111.17822266h29.16491699c4.71130371-.00488282 8.52923584-3.8232422 8.5345459-8.5341797V51.0913086c.31243896-.1953125.50231933-.53808593.5024414-.90673828v-8.79345703c-.0001831-.36865234-.19000244-.71142578-.5024414-.90673828V27.1225586c-.00531006-4.71142579-3.82324219-8.52929688-8.5345459-8.53466798h-29.164917c-4.71136474.0053711-8.52941894 3.8232422-8.53485107 8.53466797v6.12988282c-.4029541.21630859-.6538086.63720703-.65252685 1.09472656v4.6118164c-.00128174.45751954.24963379.87841797.65252685 1.09472657v2.2368164c-.32489013.23339844-.51733398.60888672-.5168457 1.00878907v4.61230468c-.00048828.39990235.19195557.77539063.5168457 1.00878907v1.23779296c-.32489013.23291016-.51733398.60888672-.5168457 1.00878907v4.6118164c-.00048828.39990235.19195557.77539063.5168457 1.00878907v45.8564453c.00543213 4.71142579 3.82348633 8.52929688 8.53485108 8.5341797zm-7.40039063-84.05615235c.00476074-4.08496094 3.31524658-7.39550781 7.40039063-7.39990234h29.16491699c4.08502197.00488281 7.39538574 3.3149414 7.40008545 7.39990234v14.3334961h.5024414v8.66455078h-.5024414v52.5234375c-.0046997 4.08496093-3.31506348 7.39550781-7.40008545 7.40039062h-29.164917c-4.08514404-.00488281-7.39562988-3.3149414-7.40039062-7.40039062V55.99072266l-.43151855-.10595704c-.04919434-.01220703-.08422852-.05566406-.08526612-.1064453V51.1665039c.00115967-.05029297.03613282-.09375.08526612-.10546875l.43151855-.10644532v-2.83105468l-.43151855-.10644532c-.0491333-.01171875-.08410645-.05517578-.08526612-.10546875v-4.61230468c.00115967-.05029297.03613282-.09375.08526612-.10595704l.43151855-.1064453V39.0883789l-.54559326-.02050782c-.0588379-.0024414-.1057129-.05029296-.1069336-.10888671v-4.61181641c.0010376-.05908203.04803467-.1069336.1069336-.10888672l.54559326-.0209961v-7.09521484z"/>
      <ellipse cx="285.986" cy="22.004" fill="rgb(63,61,86)" rx=".678" ry=".678"/>
      <path fill="rgb(200,200,200)" fill-rule="evenodd" d="M138.45070206 153.38240754H62.5620203c-2.24355265-.00575337-4.06096688-1.82292581-4.06702691-4.06648583v-36.9775929c.00575955-2.24355824 1.82292175-4.06097546 4.06647102-4.06704171h75.88868175c2.2435532.00575957 4.06096635 1.82293093 4.06703258 4.0664915v36.9775929c-.00576268 2.24355823-1.82292742 4.06097292-4.0664767 4.06703604z"/>
      <path fill="rgb(63,61,86)" fill-rule="evenodd" d="M62.56201172 153.3828125h75.88867187c2.24359131-.00634766 4.06072998-1.82373047 4.06652832-4.06738281v-36.97753907c-.00610351-2.24365234-1.82348632-4.06054687-4.06707763-4.06640624H62.5614624c-2.24353027.00585937-4.06072998 1.82324218-4.06646728 4.06689453v36.97753906c.00604248 2.24365234 1.82348633 4.06103516 4.0670166 4.06689453zm-2.93255615-41.04394531c.00445556-1.61767578 1.31469726-2.92822266 2.93255615-2.93310547h75.88757324c1.61785889.00439453 2.92834473 1.3149414 2.93310547 2.93261719v36.9765625c-.00445557 1.61816406-1.31506348 2.92871093-2.93310547 2.93310547H62.56256104c-1.6178589-.00439454-2.92840577-1.31494141-2.93310547-2.9326172v-36.9765625z"/>
      <path fill="rgb(236,111,126)" fill-rule="evenodd" d="M104.57361215 147.91771162c-14.96690544 0-30.57327718-.14302306-36.3961959-.23574924-1.59327072-.03284705-2.86947349-1.33062106-2.87561864-2.92422428v-30.60902232c.0006146-.57126734.46280678-1.03461733 1.03406872-1.0366591h68.33801172c.57114813.00067051 1.03438755.46275558 1.03648515 1.03390233v20.76766987c-.02659735 7.05162806-5.68768362 12.78716882-12.73833702 12.90587138-5.4269379.07066068-11.853122.09821136-18.39841403.09821136z"/>
      <path fill="rgb(63,61,86)" fill-rule="evenodd" d="M68.86865234 133.00585938h61.7487793c1.00299072.00048828 1.9095459-.59765626 2.30303955-1.52001954l8.45117188-19.72021484.22155761-.51708984-.05950927-.02490235c.13006591-.73144531-.07055664-1.48291015-.54785157-2.05175781-.47729492-.56933594-1.18225097-.89746094-1.92498779-.89648438l-77.18487549.10742188c-.8145752.00146484-1.57769775.3984375-2.04656982 1.06445313-.46887207.66601562-.58514404 1.51855468-.31182862 2.2861328l6.98907471 19.6069336c.35864258.99707031 1.30273438 1.66259766 2.36199951 1.66552734zm-6.99047851-23.48876954l77.1862793-.10742187c.46166992 0 .89251708.2319336 1.14666748.6171875.25415039.38574219.29766845.87304687.11578369 1.29736328l-8.44921875 19.71484375c-.215271.50488281-.71136475.83251953-1.2602539.83203125H68.8694458c-.5803833-.00146484-1.09777832-.36621094-1.29455566-.91210938l-6.98876953-19.6064453c-.14971924-.42041016-.08599854-.88720704.17089843-1.25244141.25689698-.3647461.67492676-.58203125 1.12115479-.58300782z"/>
      <ellipse cx="100.391" cy="132.438" fill="rgb(200,200,200)" rx="4.835" ry="4.835"/>
      <ellipse cx="283.04" cy="90.463" fill="rgb(200,200,200)" rx="4.835" ry="4.835"/>
      <path fill="rgb(63,61,86)" fill-rule="evenodd" d="M452.9987793 147.84472656l12.91589355 12.75146485c2.67028809 2.64648437 2.69567871 6.95410156.0567627 9.63183593-2.95446778 3.00585938-6.98828125 4.70507813-11.20288086 4.71923828h-.09643555c-3.04003906.00976563-6.01757812-.86279296-8.57092285-2.5126953-.93395996-.59570313-1.80114746-1.28955079-2.58666992-2.0703125-.14172364-.14208985-.28356934-.28369141-.41967774-.43115235-5.84692383-6.22363281-5.7241211-15.95751953.2779541-22.03173828 1.26574707-1.2866211 2.99365235-2.01416016 4.79882813-2.01904297h.04528809c1.79138183-.00732422 3.51196289.69873047 4.78186035 1.96240234zm-6.41552735 23.5571289c5.87902832 3.83007813 13.63952637 3.00585938 18.5826416-1.9736328 2.19812012-2.23046875 2.17529297-5.81933594-.05102539-8.0209961l-12.91589355-12.75732422c-1.05810547-1.05078125-2.49060059-1.63867187-3.98205566-1.63330078h-.03405762c-1.5065918.0024414-2.94934082.609375-4.00463867 1.68457032-5.7232666 5.79589843-5.664917 15.13378906.13049316 20.85742187.69702148.68603516 1.4588623 1.30371094 2.27453613 1.84326172z"/>
      <path fill="rgb(63,61,86)" fill-rule="evenodd" d="M410.62060547 105.98828125l12.91589355 12.75683594c1.28491211 1.2680664 2.01330567 2.99511718 2.02502442 4.80029297.01171875 1.80517578-.69433594 3.54101562-1.96264649 4.82568359-2.95446777 3.00634766-6.98779297 4.70751953-11.20288086 4.72509766h-.10205078c-4.17919922.00927734-8.19152832-1.63916016-11.15759277-4.58300782-.12475586-.125-.24951172-.24951172-.3572998-.37451172-.9650879-1.00683593-1.7911377-2.1376953-2.45617676-3.36376953l-.00561524-.00537109c-3.30908203-6.15185547-2.22351074-13.74169922 2.67736817-18.71923828 1.26733398-1.28857422 2.99694824-2.01757813 4.80444336-2.02490235h.03967285c1.79089355-.00439453 3.51049804.70117188 4.78186035 1.96289063zm1.76977539 25.97363281c3.91186523-.01611328 7.6550293-1.59472656 10.39733887-4.38427734 2.19970703-2.23095703 2.17944336-5.82080078-.04528809-8.02685547l-12.91601562-12.75146484c-2.23010254-2.19775391-5.81872559-2.1748047-8.02062989.05126953-4.17895508 4.23144531-5.40734863 10.55908203-3.11523437 16.04736328 2.29211426 5.48779297 7.65600586 9.06201172 13.60339355 9.06396484h.09643555z"/>
      <path fill="rgb(236,111,126)" fill-rule="evenodd" d="M466.74021122 164.60504941l-14.23940434-14.0638227c-1.94417036-1.91588933-5.07230233-1.8964771-6.99254519.04339361-3.13877601 3.17092502-4.34585966 7.77635195-3.16596427 12.07921016 1.1798954 4.30285822 4.56723813 7.64842908 8.88439343 8.7748333 4.3171553 1.12640423 8.9072291-.13775073 12.03894167-3.3156521l3.4745787-3.51796227z"/>
      <path fill="rgb(236,111,126)" fill-rule="evenodd" d="M424.36465895 122.7520231l-14.23940434-14.06381703c-1.94416782-1.9158956-5.07230495-1.89648333-6.99254519.0433936-3.13877601 3.17092503-4.34585966 7.77635195-3.16596427 12.07921017 1.1798954 4.30285821 4.56723813 7.64842907 8.88439343 8.7748333 4.3171553 1.12640423 8.9072291-.13775074 12.03894167-3.3156521l3.4745787-3.51796795z"/>
      <path fill="rgb(63,61,86)" fill-rule="evenodd" d="M451.09281708 173.3645567l-.34034078.8962056s-2.39940248-.91036384-4.65132396-1.82650215c-26.59195942-10.85123797-39.28667042-23.55166757-47.77817282-47.6592271l-.00567235-.00567236s-.60410488-1.70171008-1.17417568-3.48280494l.89623071-.28929072c.29967222 1.14195019.73780077 2.2429903 1.30463965 3.2786281 0 0 .6976986 1.98249225 1.43510361 3.86288189 7.98099124 20.34678024 19.7511098 31.97513248 42.31570335 41.79399967 0 0 1.70170388.7402836 3.48849297 1.46914304 1.38316804.90118387 2.9073878 1.5645574 4.5095153 1.96263896z"/>
      <rect width="1.135" height="41.408" x="424.148" y="126.312" fill="rgb(63,61,86)" rx="0" ry="0" transform="rotate(-45.355286 424.71575512 147.01640851)"/>
      <path fill="rgb(255,182,182)" fill-rule="evenodd" d="M160.96123815 107.95341332l.01509978-18.64092365-10.95762302.97920369 3.86717314 11.75677463-14.03744613 21.27940245c-2.44683022.54909521-4.0134765 2.94434732-3.5359691 5.4061581.47750738 2.46181078 2.82604696 4.09764474 5.30072648 3.69212785 2.47467952-.4055169 4.1782979-2.7053635 3.84511937-5.19082493l15.50291948-19.28191814z"/>
    </g>
  </g>
</svg>
