<?xml version="1.0" encoding="utf-8"?>
<!-- Generator: Adobe Illustrator 24.1.2, SVG Export Plug-In . SVG Version: 6.00 Build 0)  -->
<svg version="1.1" id="outline" xmlns="http://www.w3.org/2000/svg" xmlns:xlink="http://www.w3.org/1999/xlink" x="0px" y="0px"
	 viewBox="0 0 430 430" style="enable-background:new 0 0 430 430;" xml:space="preserve">
<style type="text/css">
	.st0{fill:#ffffff;opacity:0.4;}
	.st1{fill:#ffffff;opacity:0.4;}
	.st2{fill:none;stroke:#ffffff;opacity:0.4;stroke-width:12;stroke-linecap:round;stroke-linejoin:round;stroke-miterlimit:10;}
	.st3{fill-opacity:0;}
	.st4{fill:#ffffff;opacity:0.4;}
</style>
<g>
	<path class="st1" d="M302.75,258.43c-0.01,0-0.01,0-0.02,0c-3.04-0.01-5.49-2.48-5.48-5.52c0.13-35.28-0.39-98.26-5.26-123.61
		c-10.29-53.58-35.46-79.63-76.93-79.63c-41.48,0-66.64,26.05-76.93,79.63c-4.85,25.28-5.38,88.25-5.26,123.53
		c0.01,3.04-2.44,5.51-5.48,5.52c-0.01,0-0.01,0-0.02,0c-3.03,0-5.49-2.45-5.5-5.48c-0.15-43.59,0.68-100.77,5.46-125.65
		c11.29-58.76,40.8-88.55,87.74-88.55c46.93,0,76.45,29.79,87.73,88.55c4.8,24.95,5.62,82.14,5.46,125.73
		C308.24,255.98,305.78,258.43,302.75,258.43z"/>
	<path class="st0" d="M215.01,391.83c-0.45,0-0.9-0.05-1.35-0.15c-3.23-0.74-5.24-3.97-4.5-7.19l33.88-146.97
		c0.74-3.23,3.97-5.24,7.19-4.5c3.23,0.74,5.24,3.97,4.5,7.19l-33.88,146.97C220.21,389.95,217.74,391.83,215.01,391.83z"/>
	<path class="st1" d="M289.06,290.23c-3.31,0-6-2.69-6-6v-38.74c0-3.31,2.69-6,6-6s6,2.69,6,6v38.74
		C295.06,287.54,292.37,290.23,289.06,290.23z"/>
	<path class="st0" d="M214.99,391.83c-2.73,0-5.2-1.88-5.84-4.65l-33.87-146.97c-0.74-3.23,1.27-6.45,4.5-7.19
		c3.23-0.75,6.45,1.27,7.19,4.5l33.87,146.97c0.74,3.23-1.27,6.45-4.5,7.19C215.89,391.78,215.44,391.83,214.99,391.83z"/>
	<path class="st1" d="M289.06,321.17c-11.84,0-21.47-9.63-21.47-21.47s9.63-21.47,21.47-21.47s21.47,9.63,21.47,21.47
		S300.9,321.17,289.06,321.17z M289.06,290.23c-5.22,0-9.47,4.25-9.47,9.47s4.25,9.47,9.47,9.47s9.47-4.25,9.47-9.47
		S294.28,290.23,289.06,290.23z"/>
	<path class="st1" d="M141,303.15c-3.31,0-6-2.69-6-6v-51.69c0-3.31,2.69-6,6-6s6,2.69,6,6v51.69
		C147,300.46,144.31,303.15,141,303.15z"/>
	<g>
		<path class="st1" d="M157.91,344.5c-0.01,0-0.01,0-0.02,0c-3.31-0.01-5.99-2.7-5.98-6.01l0.07-27.35c0-4.33-5.03-7.99-10.98-7.99
			s-10.98,3.67-10.98,8.01l0.07,27.34c0.01,3.31-2.67,6.01-5.98,6.01c-0.01,0-0.01,0-0.02,0c-3.31,0-5.99-2.68-6-5.99l-0.07-27.35
			c0-11.05,10.31-20.02,22.98-20.02s22.98,8.97,22.98,20.01l-0.07,27.37C163.9,341.83,161.21,344.5,157.91,344.5z"/>
		<path class="st1" d="M157.91,344.5h-4.65c-3.31,0-6-2.69-6-6s2.69-6,6-6h4.65c3.31,0,6,2.69,6,6S161.22,344.5,157.91,344.5z"/>
		<path class="st1" d="M128.67,344.5h-4.65c-3.31,0-6-2.69-6-6s2.69-6,6-6h4.65c3.31,0,6,2.69,6,6S131.99,344.5,128.67,344.5z"/>
	</g>
	<path class="st0" d="M215.01,391.83h-0.31c-21.2,0-41.87-4.13-61.42-12.26l-0.12-0.05c-7.23-3.01-14.78-4.97-22.53-5.87
		l-27.53-3.17c-10.6-1.22-18.59-10.19-18.59-20.86v-27.76c0-29.75,14.77-57.41,39.52-74c4.6-3.08,9.52-5.74,14.62-7.92
		c11.04-4.7,22.77-7.08,34.86-7.08h7.63c3.31,0,6,2.69,6,6s-2.68,6-5.99,6h-7.64c-10.47,0-20.61,2.06-30.15,6.12
		c-4.41,1.89-8.67,4.2-12.66,6.86c-21.41,14.35-34.19,38.28-34.19,64.02v27.76c0,4.57,3.42,8.42,7.96,8.94l27.53,3.17
		c8.86,1.03,17.5,3.28,25.69,6.68l0.12,0.05c18.16,7.56,37.28,11.37,56.89,11.37h0.3c19.6-0.04,38.72-3.89,56.79-11.46
		c7.9-3.3,16.2-5.47,24.69-6.46l29.04-3.36c4.55-0.52,7.97-4.37,7.97-8.94v-27.76c0-25.69-12.75-49.6-34.1-63.95
		c-4.02-2.7-8.29-5.02-12.69-6.9c-9.56-4.08-19.72-6.15-30.21-6.15h-7.62c-3.31,0-6-2.69-6-6s2.68-6,6-6h7.63
		c12.12,0,23.87,2.39,34.92,7.11c5.09,2.17,10.04,4.85,14.68,7.98c24.67,16.59,39.4,44.22,39.4,73.91v27.76
		c0,10.67-7.99,19.64-18.6,20.86l-29.04,3.36c-7.37,0.85-14.59,2.74-21.45,5.61C256.88,387.62,236.22,391.79,215.01,391.83z"/>
	<path class="st0" d="M215,283.42c-1.06,0-2.13-0.28-3.08-0.85c-3.77-2.25-36.79-22.6-36.79-44.02v-18.93c0-3.31,2.69-6,6-6
		s6,2.69,6,6v18.93c0,10.15,15.99,24.04,27.87,31.79c11.88-7.75,27.88-21.64,27.88-31.79v-18.94c0-3.31,2.69-6,6-6s6,2.69,6,6v18.94
		c0,21.42-33.04,41.77-36.8,44.02C217.13,283.14,216.06,283.42,215,283.42z"/>
	<path class="st0" d="M214.96,236.17c-35.53,0-64.33-27.82-65.57-63.33l-1.15-34.42c-0.11-3.31,2.48-6.09,5.8-6.2
		c3.32-0.1,6.09,2.48,6.2,5.8l1.15,34.41c1.01,29.01,24.54,51.74,53.58,51.74c29.03,0,52.57-22.73,53.58-51.75l1.36-32.9
		c0.14-3.31,2.96-5.88,6.24-5.75c3.31,0.14,5.88,2.93,5.75,6.24l-1.36,32.86C279.29,208.35,250.49,236.17,214.96,236.17z"/>
	<path class="st1" d="M130.7,148.32c-2.88,0-5.3-2.24-5.48-5.15c-0.19-3.03,2.1-5.65,5.14-5.84c4.99-0.32,10.42-1.21,16.16-2.66
		c1.79-0.45,3.56-0.94,5.27-1.46c0.03-0.01,0.07-0.02,0.1-0.03c0.22-0.06,0.44-0.13,0.66-0.2c46.05-14.2,72.61-30.99,81.27-51.33
		c0.65-1.53,1.96-2.69,3.57-3.14c1.6-0.45,3.32-0.15,4.68,0.81c18.44,13.13,31.47,40.98,36.46,53.01c4.97-3.37,9.28-9.3,11.26-15.87
		c0.88-2.91,3.95-4.56,6.85-3.68c2.91,0.88,4.55,3.95,3.68,6.85c-3.01,9.98-11.31,21.73-23.08,25.47c-2.81,0.89-5.84-0.6-6.84-3.38
		c-0.13-0.35-11.92-32.67-29.73-49.33c-12.23,20.73-39.48,37.08-84.83,51.07c-0.27,0.09-0.6,0.19-0.92,0.28
		c-1.85,0.56-3.78,1.09-5.72,1.58c-6.39,1.61-12.49,2.6-18.14,2.97C130.94,148.32,130.82,148.32,130.7,148.32z"/>
</g>
</svg>
