<svg xmlns="http://www.w3.org/2000/svg" width="500" height="500" style="width:100%;height:100%;content-visibility:visible"><defs><clipPath id="a"><path d="M0 0h500v500H0z"/></clipPath></defs><g clip-path="url(#a)"><g display="block"><path stroke-linecap="round" stroke-linejoin="round" stroke="#EB6E7D" stroke-width="12.04" d="M101.87 240.503c0 25.575 66.32 46.308 148.13 46.308s148.13-20.733 148.13-46.308" fill="none"/><path stroke-linecap="round" stroke-linejoin="round" stroke="#EB6E7D" stroke-width="12.04" d="M398.131 243.342v73.434c0 41.97-49.378 66.657-148.131 66.657s-148.131-24.687-148.131-65.732v-74.359c0-32.726 66.322-50.013 148.131-50.013s148.131 17.287 148.131 50.013z" fill="none"/><path stroke-linecap="round" stroke-linejoin="round" stroke="#EB6E7D" stroke-width="12.04" d="M272.422 349.583h-44.844c-7.437 0-13.522-6.085-13.522-13.522v-2.98c0-7.437 6.085-13.522 13.522-13.522h44.844c7.437 0 13.522 6.085 13.522 13.522v2.98c0 7.437-6.085 13.522-13.522 13.522z" fill="none"/></g><g display="block"><path stroke-linecap="round" stroke-linejoin="round" stroke="#EB6E7D" stroke-width="13.244" d="M203.105 144.767c12.588-9.853 28.443-15.724 45.672-15.724 17.23 0 33.084 5.87 45.672 15.724M180.273 114.03c18.883-14.771 42.667-23.574 68.504-23.574 25.837 0 49.621 8.803 68.504 23.573" fill="none"/></g></g></svg>