<svg xmlns="http://www.w3.org/2000/svg" xmlns:xlink="http://www.w3.org/1999/xlink" width="18" height="18" viewBox="0 0 18 18">
  <defs>
    <rect id="rect-1" width="18" height="18" x="0" y="0"/>
    <mask id="mask-2" maskContentUnits="userSpaceOnUse" maskUnits="userSpaceOnUse">
      <rect width="18" height="18" x="0" y="0" fill="black"/>
      <use fill="white" xlink:href="#rect-1"/>
    </mask>
    <path id="path-4" fill-rule="evenodd" d="M14.40000153 9c0 .24749947-.0150013.47999954-.04500199.70499992l1.5074997 1.18499947c.14250183.10499954.1800003.29249954.09000015.45750046l-1.43999863 2.48999977c-.09000015.164999-.27750015.22500038-.44250107.164999l-1.79249954-.7199993c-.3675003.28499984-.77249908.52499961-1.21500015.70499992l-.27000046 1.90499878c-.02249908.1800003-.1724987.30750084-.352499.30750084H7.56000136c-.1800003 0-.32250023-.12750054-.3600006-.30750084l-.27000046-1.90499878c-.44249917-.1800003-.84000016-.42000008-1.21500016-.70499993l-1.79249954.71999932c-.16500092.05250168-.35250092 0-.44250107-.16499901l-1.43999862-2.48999977c-.08250046-.15000153-.04500008-.35250092.09000015-.45750046l1.52249908-1.18499947C3.61499977 9.47999954 3.60000038 9.23249817 3.60000038 9c0-.23250008.03000069-.48000145.06749916-.70500183L2.14500046 7.1099987c-.14999962-.10499954-.1800003-.29999923-.09000015-.45749855l1.43250083-2.49000168c.09000016-.164999.27750016-.22499847.44249917-.164999l1.79249954.7199993c.3675003-.27750014.77250099-.5249996 1.21500015-.70499991l.27000046-1.90499878c.03000068-.1800003.1725006-.30750084.35250091-.30750084h2.87999916c.1800003 0 .32999993.12750053.3599987.30750084l.27000046 1.90499878c.44250107.1800003.84000016.42000007 1.21500016.70499992l1.79249954-.71999931c.16500092-.05249978.35250092 0 .44250107.164999l1.43999862 2.49000168c.08250046.14999962.04500199.35249901-.08999824.45749855l-1.522501 1.18499947c.03750039.22500038.05250169.46500015.05250169.70500183zm-8.1000023 0c0 1.4849987 1.21500016 2.69999886 2.70000077 2.69999886 1.4849987 0 2.69999886-1.21500016 2.69999886-2.69999886 0-1.48500061-1.21500016-2.70000076-2.69999886-2.70000076-1.48500061 0-2.70000076 1.21500015-2.70000076 2.70000076z"/>
    <mask id="mask-5" x="0" y="0" maskContentUnits="userSpaceOnUse" maskUnits="userSpaceOnUse">
      <rect width="18" height="18" x="0" y="0" fill="white"/>
      <use fill="black" xlink:href="#path-4"/>
    </mask>
  </defs>
  <g>
    <use fill="none" xlink:href="#rect-1"/>
    <g mask="url(#mask-2)">
      <path fill="none" d="M0 0h18v18H0V0z"/>
      <use fill-opacity="0" stroke="rgb(239,238,237)" stroke-linecap="butt" stroke-linejoin="miter" stroke-width="2" mask="url(#mask-5)" xlink:href="#path-4"/>
    </g>
  </g>
</svg>
