<svg xmlns="http://www.w3.org/2000/svg" width="500" height="500" style="width:100%;height:100%;content-visibility:visible"><defs><clipPath id="a"><path d="M0 0h500v500H0z"/></clipPath></defs><g clip-path="url(#a)"><g display="block"><path stroke-linecap="round" stroke-linejoin="round" stroke="#EB6E7D" stroke-width="12.04" d="M328.857 230.994c28.937 16.498 48.45 47.62 48.45 83.309 0 52.918-42.899 95.817-95.817 95.817-52.918 0-95.817-42.899-95.817-95.817v-70.138" fill="none"/><path stroke-linecap="round" stroke-linejoin="round" stroke="#EB6E7D" stroke-width="12.04" d="M278.774 221.218c0 14.355 11.637 25.992 25.992 25.992s25.992-11.637 25.992-25.992-11.637-25.992-25.992-25.992-25.992 11.637-25.992 25.992z" fill="none"/></g><g display="block"><path stroke-linecap="round" stroke-linejoin="round" stroke="#EB6E7D" stroke-width="12.04" d="M212.33 97.082h21.639c8.885 0 15.731 7.834 14.54 16.638L233.927 202c-3.267 24.152-23.886 42.17-48.258 42.17 0 0 0 0 0 0-24.372 0-44.991-18.018-48.258-42.17l-14.582-88.28c-1.191-8.804 5.655-16.638 14.54-16.638h21.639M211.704 105.808V88.356m-52.07 17.452V88.356" fill="none"/></g></g></svg>