<svg xmlns="http://www.w3.org/2000/svg" width="500" height="500" style="width:100%;height:100%;content-visibility:visible"><defs><clipPath id="a"><path d="M0 0h500v500H0z"/></clipPath></defs><g clip-path="url(#a)"><g display="block"><path stroke-linecap="round" stroke-linejoin="round" stroke="#EB6E7D" stroke-width="12.6" d="M232.777 92.63l-.028 217.096c0 2.78-1.606 5.348-4.159 6.448-20.709 8.926-34.855 30.181-33.186 54.521 1.864 27.187 23.884 49.217 51.07 51.093 32.208 2.222 59.026-23.246 59.026-54.979 0-22.69-13.713-42.175-33.302-50.627-2.559-1.104-4.176-3.671-4.176-6.458l.028-217.094c0-9.74-7.897-17.636-17.637-17.636 0 0 0 0 0 0-9.74 0-17.636 7.896-17.636 17.636z" fill="none"/><g stroke-linecap="round" stroke-linejoin="round" stroke="#FFF" fill="none"><path stroke-dasharray="0.01 414" stroke-width="26.6" d="M250.3 367.117l.029-137.556"/><path stroke-width="12.6" d="M250.3 367.117l.029-137.556"/></g></g><path stroke-linecap="round" stroke-linejoin="round" stroke="#FFF" stroke-width="12.6" d="M289.5 250.5h17m-17-35h17m-17-35h17m-17-35h17m-17-35h17" fill="none" display="block"/></g></svg>